HIERARCHY
ROOT Hips
{
	OFFSET -0.179506 -22.333345 2.821913
	CHANNELS 6 Xposition Yposition Zposition Zrotation Yrotation Xrotation 
	JOINT LeftUpLeg
	{
		OFFSET 6.951974 -9.140623 -0.681533
		CHANNELS 3 Zrotation Yrotation Xrotation
		JOINT LeftLeg
		{
			OFFSET 3.427654 -37.519855 -0.449580
			CHANNELS 3 Zrotation Yrotation Xrotation
			JOINT LeftFoot
			{
				OFFSET -1.359570 -39.796059 -4.369333
				CHANNELS 3 Zrotation Yrotation Xrotation
				JOINT LeftToe
				{
					OFFSET 2.635814 -5.579078 11.928840
					CHANNELS 3 Zrotation Yrotation Xrotation
					End Site
					{
						OFFSET 0.000000 0.000000 0.000000
					}
				}
			}
		}
	}
	JOINT RightUpLeg
	{
		OFFSET -6.767048 -9.052170 -0.431982
		CHANNELS 3 Zrotation Yrotation Xrotation
		JOINT RightLeg
		{
			OFFSET -3.829005 -38.256897 -0.885003
			CHANNELS 3 Zrotation Yrotation Xrotation
			JOINT RightFoot
			{
				OFFSET 1.577377 -39.841461 -4.231180
				CHANNELS 3 Zrotation Yrotation Xrotation
				JOINT RightToe
				{
					OFFSET -2.537174 -4.814398 12.334795
					CHANNELS 3 Zrotation Yrotation Xrotation
					End Site
					{
						OFFSET 0.000000 0.000000 0.000000
					}
				}
			}
		}
	}
	JOINT Spine
	{
		OFFSET -0.253288 10.896323 -2.669631
		CHANNELS 3 Zrotation Yrotation Xrotation
		JOINT Spine1
		{
			OFFSET 0.548704 13.518043 0.109247
			CHANNELS 3 Zrotation Yrotation Xrotation
			JOINT Spine2
			{
				OFFSET 0.145701 5.292222 2.542457
				CHANNELS 3 Zrotation Yrotation Xrotation
				JOINT Neck
				{
					OFFSET -0.277840 21.387037 -4.285703
					CHANNELS 3 Zrotation Yrotation Xrotation
					JOINT Head
					{
						OFFSET 0.515184 6.496960 5.134897
						CHANNELS 3 Zrotation Yrotation Xrotation
						End Site
						{
							OFFSET 0.000000 0.000000 0.000000
						}
					}
				}
				JOINT LeftShoulder
				{
					OFFSET 7.884473 12.174932 -3.408961
					CHANNELS 3 Zrotation Yrotation Xrotation
					JOINT LeftArm
					{
						OFFSET 9.097692 3.046888 -0.886815
						CHANNELS 3 Zrotation Yrotation Xrotation
						JOINT LeftForeArm
						{
							OFFSET 25.961220 -1.277207 -2.745643
							CHANNELS 3 Zrotation Yrotation Xrotation
							JOINT LeftHand
							{
								OFFSET 24.923361 0.898606 -0.117091
								CHANNELS 3 Zrotation Yrotation Xrotation
								End Site
								{
									OFFSET 0.000000 0.000000 0.000000
								}
							}
						}
					}
				}
				JOINT RightShoulder
				{
					OFFSET -8.175920 11.883285 -3.861528
					CHANNELS 3 Zrotation Yrotation Xrotation
					JOINT RightArm
					{
						OFFSET -9.601238 3.255117 -0.914307
						CHANNELS 3 Zrotation Yrotation Xrotation
						JOINT RightForeArm
						{
							OFFSET -25.374195 -1.332924 -2.140099
							CHANNELS 3 Zrotation Yrotation Xrotation
							JOINT RightHand
							{
								OFFSET -25.529810 0.777228 -0.555919
								CHANNELS 3 Zrotation Yrotation Xrotation
								End Site
								{
									OFFSET 0.000000 0.000000 0.000000
								}
							}
						}
					}
				}
			}
		}
	}
}
MOTION
Frames: 8
Frame Time: 0.033333
-5.810638 67.718391 29.873930 79.103587 -73.951151 -168.838089 6.529429 -0.932484 -4.963672 -1.780038 -4.824025 20.930182 0.356789 12.579992 15.466914 -1.108545 -0.733963 -1.096729 -6.363348 -6.721953 4.419487 -0.431360 -4.150214 3.450139 5.828363 -14.035262 22.010564 -1.567385 0.433568 -0.227545 -0.814208 -0.806663 17.865763 -2.126645 -2.423490 -16.049453 3.357888 -3.698576 10.822633 -1.023908 -6.190757 -7.238514 3.793574 3.335774 -1.932220 -13.564943 4.749007 5.673373 -51.302458 2.278450 11.295333 -10.269169 -31.138028 20.691251 -9.627156 -13.198049 -9.591845 7.774290 3.088583 -3.353383 49.696378 3.136539 12.900158 -1.342712 23.746375 5.525459 9.536880 6.390617 -4.003715 
-5.758571 67.713264 30.924543 83.885138 -72.448317 -174.030022 6.382621 -0.781865 -3.750890 -1.286150 -5.608900 18.738771 0.116477 12.142835 14.741106 -1.048115 -0.682031 -1.048906 -6.455144 -6.677531 4.281101 -0.327654 -4.185139 3.866097 6.076587 -13.551900 21.567442 -1.395587 0.545215 -0.225415 -0.618033 -1.051294 18.069153 -2.114642 -2.431721 -15.898974 3.440802 -3.751648 10.745458 -0.844588 -6.334827 -7.222092 3.835285 3.334054 -1.881614 -13.781739 4.647502 5.793870 -51.374006 2.387890 11.266231 -10.407179 -31.678133 20.651298 -9.365101 -13.191156 -9.753258 7.703693 3.552438 -3.869870 49.642695 3.641215 12.738657 -1.683195 23.628570 4.555105 9.253497 6.263212 -4.342927 
-5.898377 67.715508 32.475071 88.140095 -71.153167 -178.697763 6.143523 -0.552807 -2.900064 -0.870774 -5.756963 16.972700 -0.293566 11.437979 13.015364 -1.006796 -0.676237 -0.979667 -6.563831 -6.850149 4.045783 -0.407378 -4.696906 4.317453 6.402480 -13.258096 20.943546 -1.323568 0.740326 -0.209830 -0.468916 -1.335556 18.069673 -2.085677 -2.379084 -15.746044 3.430083 -3.842112 10.781924 -0.547021 -6.310128 -7.199431 3.860620 3.190572 -2.064532 -13.894080 4.657695 5.859771 -51.596210 2.290627 11.549074 -10.841893 -32.776441 20.801790 -9.143938 -13.183052 -10.200638 7.513983 3.861663 -4.339812 49.488093 4.142106 12.499828 -2.129407 23.610922 3.556738 9.261672 6.192957 -4.844619 
-6.505271 67.728256 33.069080 92.448493 -69.420332 176.804887 6.192983 -0.745167 -2.327022 -0.268565 -6.558075 15.995552 -0.543326 10.772727 11.352300 -0.943648 -0.650594 -0.920375 -6.379616 -6.684884 3.808295 0.133820 -4.839665 4.941436 6.156269 -12.759257 18.956383 -1.256367 0.717846 -0.282881 -0.245005 -1.596992 18.117837 -1.902773 -2.349603 -15.266485 3.374610 -3.880664 10.515819 -0.346514 -6.437427 -7.038687 3.866976 2.627423 -1.917882 -13.836950 4.733515 6.055005 -51.530641 2.532241 11.784743 -10.843265 -33.365918 20.478905 -8.799329 -13.151289 -10.620530 7.435062 4.206417 -4.949373 49.718226 4.349867 12.458512 -2.584000 24.355931 2.840072 9.164205 6.103118 -5.763633 
-7.233648 67.746651 33.823627 96.684377 -67.320690 172.304370 6.214000 -0.812109 -1.674829 0.381476 -6.961345 15.198186 -0.599984 10.150043 9.941603 -0.838108 -0.706664 -0.814519 -6.088398 -6.454682 3.430051 0.518875 -4.953639 5.863502 5.777752 -12.495279 16.961853 -1.199368 0.894888 -0.286563 -0.085540 -1.839720 18.079746 -1.901579 -2.303384 -14.916125 3.373462 -3.855914 10.472507 -0.143789 -6.359919 -6.985138 3.849943 2.394493 -2.057909 -13.749592 4.756630 6.389908 -51.615914 2.762171 11.997131 -10.906620 -34.321319 20.391805 -8.820075 -13.001939 -10.305946 7.451378 4.699806 -5.445514 50.041104 4.836212 12.296317 -3.096202 24.678049 2.212503 9.244827 5.985949 -5.751069 
-7.405047 67.777084 34.383881 98.983906 -65.284067 169.530788 5.976502 -0.727398 -1.020644 0.493827 -7.288087 13.909993 -2.255481 9.245154 10.700676 -0.807802 -0.708179 -0.801514 -6.190208 -6.621593 3.017654 0.479074 -5.499150 6.867674 5.678293 -12.350694 16.072723 -1.227847 0.996859 -0.442307 0.070351 -2.084166 18.142009 -1.917237 -2.242636 -14.592203 3.397157 -3.889270 10.347702 -0.037211 -6.137669 -6.851140 3.765230 2.771854 -2.225117 -13.851675 4.780766 6.560583 -51.702043 2.962883 12.060058 -11.046479 -34.585033 20.010002 -8.783426 -12.950689 -10.507788 7.405934 4.925952 -5.954683 50.445903 5.069802 12.179503 -3.332733 25.545592 1.550146 9.316469 5.831547 -6.312676 
-7.639201 67.823441 34.978523 101.934758 -62.829822 166.698446 5.727528 -0.882153 -0.867290 0.755230 -7.890329 12.910816 -3.541518 8.438964 11.270963 -0.691203 -0.784632 -0.749768 -5.910734 -6.291796 2.349989 0.599732 -5.502655 7.408648 5.382559 -12.490659 15.193932 -1.455567 1.169694 -0.522760 0.095878 -2.252840 18.254778 -1.804350 -2.214561 -14.354504 3.388763 -3.900598 10.128738 0.113860 -6.106781 -6.440457 3.637644 2.596659 -2.405005 -14.034840 4.886565 6.836752 -51.862126 3.067240 12.362418 -10.827359 -34.748583 19.919409 -8.352972 -12.663671 -10.422866 7.541188 5.354374 -6.592270 50.910791 5.625857 12.170009 -3.345222 25.698510 1.391869 8.864072 5.554049 -6.745213 
-7.868776 67.894203 35.609859 104.770663 -60.525945 163.616366 5.480768 -0.884015 -0.491655 0.762998 -8.287501 12.002170 -4.392803 8.032686 12.204462 -0.633365 -0.846467 -0.731739 -5.683842 -6.018754 2.041117 0.494718 -5.274349 8.014984 4.510703 -12.905446 14.582723 -1.297141 1.290684 -0.518471 0.227578 -2.462855 18.202279 -1.851397 -2.157338 -14.169756 3.363118 -3.910242 10.207975 0.318657 -5.790484 -6.396087 3.694565 2.632316 -2.450103 -14.275791 4.860490 6.980695 -51.775222 3.221539 12.436874 -10.880049 -35.305050 19.661796 -8.057488 -12.631225 -10.378560 7.761418 5.926271 -7.149353 51.373639 5.968220 12.224418 -3.369078 25.697014 1.163192 8.734054 5.444966 -6.810419 
